<svg width="498" height="890" viewBox="0 0 498 890" fill="none" xmlns="http://www.w3.org/2000/svg">
<path d="M165.113 498.342C217.913 447.142 308.446 468.675 347.113 485.842C373.513 431.442 348.113 398.509 332.113 388.842C263.713 366.042 177.946 398.342 143.613 417.342C129.213 465.742 151.946 491.509 165.113 498.342Z" fill="#C01515"/>
<path fill-rule="evenodd" clip-rule="evenodd" d="M158.489 499.5C109.258 462.994 98.1358 355.887 397.729 200.629L390.615 186.577L395.968 183.866L403.061 197.878C431.68 183.173 463.079 168.041 497.489 152.5L477.989 125C445.489 124.167 388 103.7 412 28.5L392.5 0C373.841 10.8127 350.217 25.0607 324.125 41.5485L332.098 57.2963L326.745 60.0065L319.033 44.7747C229.944 101.374 114.599 182.599 68.9887 242.5C30.9887 289.333 -4.31134 406.3 158.489 499.5ZM391.739 175.096L376.278 144.559L370.925 147.269L386.386 177.806L391.739 175.096ZM336.512 66.015L351.973 96.5519L346.62 99.2621L331.159 68.7252L336.512 66.015ZM371.662 135.859L356.202 105.322L350.849 108.033L366.309 138.569L371.662 135.859Z" fill="#E93C3C"/>
<path fill-rule="evenodd" clip-rule="evenodd" d="M339 390C388.231 426.506 399.353 533.613 99.7594 688.871L106.874 702.923L101.521 705.634L94.4273 691.622C65.8091 706.327 34.4098 721.459 9.19816e-05 737L19.5001 764.5C52.0001 765.333 109.488 785.8 85.4884 861L104.988 889.5C123.648 878.687 147.272 864.439 173.364 847.951L165.391 832.204L170.744 829.493L178.456 844.725C267.545 788.126 382.89 706.901 428.5 647C466.5 600.167 501.8 483.2 339 390ZM105.75 714.404L121.211 744.941L126.564 742.231L111.103 711.694L105.75 714.404ZM160.977 823.485L145.516 792.948L150.869 790.238L166.33 820.775L160.977 823.485ZM125.827 753.641L141.287 784.178L146.64 781.467L131.18 750.931L125.827 753.641Z" fill="#E93C3C"/>
</svg>
